<svg width="127" height="28" viewBox="0 0 127 28" fill="none" xmlns="http://www.w3.org/2000/svg">
<path d="M35.496 1.8L29.628 19.656L23.868 1.8H18.468L12.528 19.512L6.84 1.8H0.792L9.072 27H15.3L21.024 9.936L26.568 27H32.832L41.076 1.8H35.496ZM51.7103 27.288C57.8663 27.288 62.3303 23.148 62.3303 17.316C62.3303 11.484 57.8663 7.344 51.7103 7.344C45.5543 7.344 41.0543 11.484 41.0543 17.316C41.0543 23.148 45.5543 27.288 51.7103 27.288ZM51.7103 22.68C48.9023 22.68 46.7423 20.664 46.7423 17.316C46.7423 13.968 48.9023 11.952 51.7103 11.952C54.5183 11.952 56.6423 13.968 56.6423 17.316C56.6423 20.664 54.5183 22.68 51.7103 22.68ZM75.3002 27.288C81.4562 27.288 85.9202 23.148 85.9202 17.316C85.9202 11.484 81.4562 7.344 75.3002 7.344C69.1442 7.344 64.6442 11.484 64.6442 17.316C64.6442 23.148 69.1442 27.288 75.3002 27.288ZM75.3002 22.68C72.4922 22.68 70.3322 20.664 70.3322 17.316C70.3322 13.968 72.4922 11.952 75.3002 11.952C78.1082 11.952 80.2322 13.968 80.2322 17.316C80.2322 20.664 78.1082 22.68 75.3002 22.68ZM95.038 10.188V7.632H89.674V27H95.29V17.856C95.29 14.148 97.342 12.456 100.438 12.456C100.87 12.456 101.23 12.492 101.698 12.528V7.344C98.71 7.344 96.406 8.316 95.038 10.188ZM119.473 27H126.277L117.493 15.84L125.557 7.632H118.861L110.653 15.408V0.287998H105.037V27H110.653V22.068L113.353 19.404L119.473 27Z" fill="#1F8097"/>
</svg>
